<mxfile host="app.diagrams.net" modified="2023-10-04T19:04:40.681Z" agent="Mozilla/5.0 (Windows NT 10.0; Win64; x64) AppleWebKit/537.36 (KHTML, like Gecko) Chrome/117.0.0.0 Safari/537.36" etag="BJs-3vmECAYC4XZ-2Nxa" version="22.0.2" type="google">
  <diagram name="Page-1" id="DxisBdCJHKBh1GRHD_Dv">
    <mxGraphModel grid="1" page="1" gridSize="10" guides="1" tooltips="1" connect="1" arrows="1" fold="1" pageScale="1" pageWidth="827" pageHeight="1169" math="0" shadow="0">
      <root>
        <mxCell id="0" />
        <mxCell id="1" parent="0" />
        <mxCell id="BWPgzC_ZJYBXDkNB0wWr-1" value="" style="ellipse;whiteSpace=wrap;html=1;fillColor=#e1d5e7;strokeColor=#9673a6;" vertex="1" parent="1">
          <mxGeometry x="260" y="230" width="330" height="340" as="geometry" />
        </mxCell>
        <mxCell id="BWPgzC_ZJYBXDkNB0wWr-2" value="" style="ellipse;whiteSpace=wrap;html=1;fillColor=#d5e8d4;strokeColor=#82b366;" vertex="1" parent="1">
          <mxGeometry x="375" y="550" width="120" height="160" as="geometry" />
        </mxCell>
        <mxCell id="BWPgzC_ZJYBXDkNB0wWr-3" value="" style="ellipse;whiteSpace=wrap;html=1;fillColor=#d5e8d4;strokeColor=#82b366;" vertex="1" parent="1">
          <mxGeometry x="580" y="360" width="160" height="80" as="geometry" />
        </mxCell>
        <mxCell id="BWPgzC_ZJYBXDkNB0wWr-4" value="" style="ellipse;whiteSpace=wrap;html=1;fillColor=#d5e8d4;strokeColor=#82b366;" vertex="1" parent="1">
          <mxGeometry x="100" y="350" width="190" height="80" as="geometry" />
        </mxCell>
        <mxCell id="BWPgzC_ZJYBXDkNB0wWr-5" value="" style="ellipse;whiteSpace=wrap;html=1;fillColor=#d5e8d4;strokeColor=#82b366;" vertex="1" parent="1">
          <mxGeometry x="375" y="100" width="120" height="140" as="geometry" />
        </mxCell>
        <mxCell id="BWPgzC_ZJYBXDkNB0wWr-6" value="" style="ellipse;whiteSpace=wrap;html=1;aspect=fixed;fillColor=#fff2cc;strokeColor=#d6b656;" vertex="1" parent="1">
          <mxGeometry x="310" y="280" width="250" height="250" as="geometry" />
        </mxCell>
        <mxCell id="BWPgzC_ZJYBXDkNB0wWr-7" value="" style="ellipse;whiteSpace=wrap;html=1;aspect=fixed;fillColor=#ffe6cc;strokeColor=#d79b00;" vertex="1" parent="1">
          <mxGeometry x="350" y="315" width="175" height="175" as="geometry" />
        </mxCell>
        <mxCell id="BWPgzC_ZJYBXDkNB0wWr-8" value="" style="ellipse;whiteSpace=wrap;html=1;aspect=fixed;fillColor=#dae8fc;strokeColor=#6c8ebf;" vertex="1" parent="1">
          <mxGeometry x="370" y="340" width="130" height="130" as="geometry" />
        </mxCell>
        <mxCell id="BWPgzC_ZJYBXDkNB0wWr-9" value="" style="shape=cylinder3;whiteSpace=wrap;html=1;boundedLbl=1;backgroundOutline=1;size=15;fillColor=#f5f5f5;fontColor=#333333;strokeColor=#666666;" vertex="1" parent="1">
          <mxGeometry x="405" y="350" width="60" height="80" as="geometry" />
        </mxCell>
        <mxCell id="BWPgzC_ZJYBXDkNB0wWr-13" value="" style="rhombus;whiteSpace=wrap;html=1;fillColor=#f8cecc;strokeColor=#b85450;" vertex="1" parent="1">
          <mxGeometry x="260" y="350" width="30" height="80" as="geometry" />
        </mxCell>
        <mxCell id="BWPgzC_ZJYBXDkNB0wWr-14" value="" style="rhombus;whiteSpace=wrap;html=1;rotation=90;fillColor=#f8cecc;strokeColor=#b85450;" vertex="1" parent="1">
          <mxGeometry x="420" y="520" width="30" height="80" as="geometry" />
        </mxCell>
        <mxCell id="BWPgzC_ZJYBXDkNB0wWr-15" value="" style="rhombus;whiteSpace=wrap;html=1;rotation=90;fillColor=#f8cecc;strokeColor=#b85450;" vertex="1" parent="1">
          <mxGeometry x="420" y="190" width="30" height="80" as="geometry" />
        </mxCell>
        <mxCell id="BWPgzC_ZJYBXDkNB0wWr-16" value="" style="rhombus;whiteSpace=wrap;html=1;fillColor=#f8cecc;strokeColor=#b85450;" vertex="1" parent="1">
          <mxGeometry x="580" y="360" width="30" height="80" as="geometry" />
        </mxCell>
        <mxCell id="BWPgzC_ZJYBXDkNB0wWr-17" value="Actor" style="shape=umlActor;verticalLabelPosition=bottom;verticalAlign=top;html=1;outlineConnect=0;" vertex="1" parent="1">
          <mxGeometry x="150" y="330" width="30" height="60" as="geometry" />
        </mxCell>
        <mxCell id="BWPgzC_ZJYBXDkNB0wWr-18" value="Actor" style="shape=umlActor;verticalLabelPosition=bottom;verticalAlign=top;html=1;outlineConnect=0;" vertex="1" parent="1">
          <mxGeometry x="414" y="100" width="30" height="60" as="geometry" />
        </mxCell>
        <mxCell id="BWPgzC_ZJYBXDkNB0wWr-19" value="Actor" style="shape=umlActor;verticalLabelPosition=bottom;verticalAlign=top;html=1;outlineConnect=0;" vertex="1" parent="1">
          <mxGeometry x="680" y="330" width="30" height="60" as="geometry" />
        </mxCell>
        <mxCell id="BWPgzC_ZJYBXDkNB0wWr-20" value="Actor" style="shape=umlActor;verticalLabelPosition=bottom;verticalAlign=top;html=1;outlineConnect=0;" vertex="1" parent="1">
          <mxGeometry x="423" y="600" width="30" height="60" as="geometry" />
        </mxCell>
      </root>
    </mxGraphModel>
  </diagram>
</mxfile>
